<svg width="13.652344" height="16.000000" viewBox="0 0 13.6523 16" fill="none" xmlns="http://www.w3.org/2000/svg" xmlns:xlink="http://www.w3.org/1999/xlink">
	<desc>
			Created with Pixso.
	</desc>
	<defs/>
	<path id="Ellipse 12" d="M7.99609 16C5.78906 16 3.78906 15.1016 2.33984 13.6562C0.777344 12.0938 0 10.0469 0 8C-0.00390625 5.78906 0.890625 3.78906 2.33984 2.34375C3.89844 0.78125 5.94922 0 7.99609 0C10.2031 0 12.2031 0.898438 13.6523 2.34375L11.3906 4.60938C10.4531 3.67188 9.22656 3.20312 7.99609 3.20312C6.67188 3.20312 5.47266 3.73438 4.60156 4.60938C3.66406 5.53906 3.19922 6.77344 3.19922 8C3.19531 9.32812 3.73438 10.5234 4.60156 11.3906C5.53906 12.3281 6.76562 12.7969 7.99609 12.7969L7.99609 16Z" fill="#FFFFFF" fill-opacity="1.000000" fill-rule="evenodd"/>
</svg>
